<svg width="70" height="70" viewBox="0 0 70 70" fill="none" xmlns="http://www.w3.org/2000/svg"><path fill-rule="evenodd" clip-rule="evenodd" d="M19.98 0h30.04c6.947 0 9.467.723 12.007 2.082a14.162 14.162 0 015.891 5.891C69.277 10.513 70 13.033 70 19.98v30.04c0 6.947-.723 9.467-2.082 12.007a14.161 14.161 0 01-5.891 5.891C59.487 69.277 56.967 70 50.02 70H19.98c-6.947 0-9.467-.723-12.007-2.082a14.162 14.162 0 01-5.891-5.891C.723 59.487 0 56.967 0 50.02V19.98c0-6.947.723-9.467 2.082-12.007a14.162 14.162 0 015.891-5.891C10.513.723 13.033 0 19.98 0z" fill="#0C73FE"/><path d="M29.113 37.657c-.662 0-1.199.537-1.199 1.199v.615l.002.03c.125 2.494 2.006 4.992 5.208 5.238l.045.004h.633a1.198 1.198 0 000-2.397h-.537c-1.84-.161-2.872-1.544-2.954-2.937v-.553c0-.662-.537-1.199-1.198-1.199z" fill="#fff"/><path fill-rule="evenodd" clip-rule="evenodd" d="M32.399 18.294c-6.194.273-10.982 5.357-11.293 11.549-.156 3.106-.278 5.882-.278 8.464 0 2.407.106 4.818.247 7.588.313 6.162 5.093 11.2 11.256 11.476.934.042 1.838.067 2.669.067.857 0 1.792-.026 2.756-.07 6.123-.282 10.886-5.26 11.187-11.382.132-2.666.228-5.047.228-7.68 0-2.94-.107-5.651-.25-8.58-.298-6.141-5.064-11.148-11.206-11.427-.95-.043-1.87-.069-2.715-.069-.81 0-1.692.024-2.601.064zm-7.849 12.26c.235-4.72 3.819-8.575 8.435-8.788A44.549 44.549 0 0135 21.714c.658 0 1.379.022 2.12.057 4.568.218 8.128 4 8.35 8.672.02.445.04.824.058 1.168.06 1.166.1 1.93.1 3.514 0 1.563-.043 2.452-.108 3.789-.01.215-.022.442-.033.684-.221 4.653-3.778 8.409-8.328 8.63-.755.036-1.49.058-2.159.058-.645 0-1.35-.02-2.077-.055-4.588-.216-8.164-4.028-8.397-8.718-.015-.307-.03-.587-.043-.85v-.002c-.067-1.29-.112-2.152-.112-3.536 0-1.329.042-2.059.104-3.167.023-.403.048-.855.075-1.405z" fill="#fff"/><path fill-rule="evenodd" clip-rule="evenodd" d="M19.796 4h30.408c6.673 0 8.398.692 10.065 1.584a9.908 9.908 0 014.147 4.147C65.308 11.398 66 13.123 66 19.796v1.052a.904.904 0 01-.87.897c-.149.006-.3.013-.45.021-4.04.213-7.175 4.068-7.38 8.787-.024.546-.046.997-.066 1.398v.007a54.827 54.827 0 00-.091 3.167c0 1.384.039 2.245.097 3.537.012.263.025.544.038.85.204 4.691 3.333 8.503 7.347 8.719.17.01.338.017.505.024.483.02.87.414.87.898v1.05c0 6.674-.692 8.4-1.584 10.066a9.909 9.909 0 01-4.147 4.147C58.602 65.308 56.877 66 50.204 66H19.796c-6.673 0-8.398-.692-10.065-1.584a9.908 9.908 0 01-4.147-4.147C4.692 58.602 4 56.877 4 50.204v-1.051c0-.484.387-.877.87-.898.19-.008.383-.017.577-.028 3.98-.22 7.093-3.976 7.286-8.629.01-.239.02-.462.029-.674v-.01a76.06 76.06 0 00.095-3.789 64.35 64.35 0 00-.088-3.514c-.015-.344-.033-.723-.051-1.168-.194-4.671-3.309-8.454-7.305-8.672-.183-.01-.364-.019-.543-.026a.904.904 0 01-.87-.898v-1.05c0-6.675.692-8.4 1.584-10.066A9.908 9.908 0 019.73 5.584C11.398 4.692 13.123 4 19.796 4zm12.468 11.227c-7.885.347-13.84 6.8-14.224 14.462-.156 3.105-.282 5.951-.282 8.617 0 2.493.11 4.97.25 7.745.389 7.643 6.346 14.036 14.186 14.388.965.043 1.917.07 2.806.07.917 0 1.9-.029 2.897-.075 7.783-.357 13.737-6.675 14.113-14.297.132-2.68.232-5.122.232-7.83 0-3.016-.11-5.786-.254-8.73-.37-7.635-6.322-13.99-14.133-14.345A63.75 63.75 0 0035 15.16c-.867 0-1.795.025-2.736.067z" fill="#fff"/></svg>